0
SECTION
2
ENTITIES
0
LWPOLYLINE
8
0
90
6
70
1
10
0.0
20
0.0
10
300.0
20
0.0
10
300.0
20
100.0
10
100.0
20
100.0
10
100.0
20
250.0
10
0.0
20
250.0
0
LWPOLYLINE
8
0
90
3
70
1
10
0.0
20
0.0
10
250.0
20
0.0
10
125.0
20
180.0
0
LWPOLYLINE
8
0
90
4
70
1
10
0.0
20
0.0
10
200.0
20
0.0
10
200.0
20
150.0
10
0.0
20
150.0
0
CIRCLE
8
0
10
0.0
20
0.0
40
90.0
0
POLYLINE
8
0
70
1
0
VERTEX
8
0
10
0.0
20
0.0
0
VERTEX
8
0
10
180.0
20
0.0
0
VERTEX
8
0
10
180.0
20
80.0
0
VERTEX
8
0
10
90.0
20
160.0
0
VERTEX
8
0
10
0.0
20
80.0
0
SEQEND
0
ENDSEC
0
EOF
